<svg width="19" height="19" viewBox="0 0 19 19" fill="none" xmlns="http://www.w3.org/2000/svg">
<g id="internet 1" clip-path="url(#clip0_1_2355)">
<g id="_x35_11_x2C__Global_x2C__Globe_x2C__Internet">
<path id="Vector" d="M9.1516 0.297058C4.25402 0.297058 0.280518 4.27059 0.280518 9.16814C0.280518 14.0657 4.25402 18.0392 9.1516 18.0392C14.0491 18.0392 18.0227 14.0657 18.0227 9.16814C18.0227 4.27056 14.0491 0.297058 9.1516 0.297058ZM15.5538 14.2294C14.7552 13.7665 13.8548 13.4273 12.9585 13.1915C13.2286 12.0644 13.3824 10.818 13.4062 9.52298H17.3051C17.2305 11.2359 16.6172 12.8853 15.5538 14.2294ZM2.74941 14.2294C1.68605 12.8853 1.0727 11.2359 0.998046 9.52298H4.89703C4.9208 10.818 5.07455 12.0644 5.34473 13.1915C4.4418 13.4334 3.56452 13.7564 2.74941 14.2294ZM2.74937 4.1069C3.54518 4.56735 4.43786 4.90601 5.34473 5.14485C5.07452 6.27184 4.9208 7.51826 4.89703 8.81329H0.998046C1.0727 7.10032 1.68605 5.45101 2.74937 4.1069ZM9.50644 12.7209V9.52298H12.6964C12.6728 10.7649 12.5258 11.9563 12.2682 13.0293C11.4251 12.8536 10.4872 12.7427 9.50644 12.7209ZM6.03497 13.0293C5.77736 11.9564 5.63031 10.7649 5.60678 9.52298H8.79675V12.7209C7.82778 12.7425 6.896 12.8502 6.03497 13.0293ZM8.79675 5.61541V8.81329H5.60678C5.63031 7.57138 5.77736 6.37996 6.03497 5.30702C6.89912 5.486 7.82005 5.59362 8.79675 5.61541ZM9.50644 8.81329V5.61541C10.4604 5.59412 11.3875 5.48973 12.2682 5.30702C12.5259 6.37996 12.6728 7.57138 12.6964 8.81329H9.50644ZM9.50644 4.90555V1.0517C10.2686 1.24197 11.0121 2.0354 11.589 3.2941C11.7764 3.70295 11.9416 4.14789 12.0836 4.62142C11.2341 4.79466 10.3627 4.88628 9.50644 4.90555ZM8.79675 1.0517V4.90555C7.92221 4.88585 7.05057 4.79104 6.21956 4.62142C6.36161 4.14789 6.52675 3.70295 6.71414 3.2941C7.29105 2.03536 8.03455 1.24193 8.79675 1.0517ZM8.79675 13.4307V17.2846C8.03455 17.0943 7.29105 16.3009 6.71414 15.0422C6.52675 14.6333 6.36161 14.1884 6.21956 13.7148C7.05561 13.5451 7.91781 13.4505 8.79675 13.4307ZM9.50644 17.2846V13.4307C10.4264 13.4514 11.2817 13.5519 12.0836 13.7148C11.9416 14.1884 11.7765 14.6333 11.589 15.0422C11.0121 16.3009 10.2686 17.0943 9.50644 17.2846ZM13.4062 8.81329C13.3824 7.51826 13.2286 6.27184 12.9585 5.14485C13.8565 4.90714 14.7537 4.571 15.5538 4.1069C16.6172 5.45101 17.2305 7.10032 17.3051 8.81329H13.4062ZM15.0798 3.55952C14.3654 3.95776 13.5763 4.24966 12.7757 4.46047C12.4436 3.33774 11.905 2.08973 11.0963 1.24193C12.6083 1.6126 13.993 2.41089 15.0798 3.55952ZM7.20681 1.24193C6.39808 2.08973 5.85954 3.33778 5.52744 4.46047C4.73082 4.25083 3.94321 3.96017 3.22334 3.55952C4.31022 2.41089 5.69482 1.6126 7.20681 1.24193ZM3.22337 14.7768C3.94811 14.3741 4.73174 14.0843 5.52748 13.8758C5.85957 14.9984 6.39812 16.2466 7.20684 17.0943C5.69479 16.7237 4.31022 15.9254 3.22337 14.7768ZM11.0963 17.0943C11.9041 16.2476 12.443 15.0007 12.7758 13.8758C13.5625 14.0823 14.3577 14.3747 15.0799 14.7768C13.993 15.9254 12.6084 16.7237 11.0963 17.0943Z" fill="#1F073B"/>
</g>
</g>
<defs>
<clipPath id="clip0_1_2355">
<rect width="18.168" height="18.168" fill="white" transform="translate(0.067627 0.0847168)"/>
</clipPath>
</defs>
</svg>
