<svg width="14" height="19" viewBox="0 0 14 19" fill="none" xmlns="http://www.w3.org/2000/svg">
<g id="Group 4031">
<path id="Vector 506 (Stroke)" fill-rule="evenodd" clip-rule="evenodd" d="M0.0928955 1.16799C0.0928955 0.836622 0.361525 0.567993 0.692896 0.567993H8.6929C8.85203 0.567993 9.00464 0.631207 9.11716 0.743729L13.6172 5.24373C13.7297 5.35625 13.7929 5.50886 13.7929 5.66799V17.668C13.7929 17.9994 13.5243 18.268 13.1929 18.268H0.692896C0.361525 18.268 0.0928955 17.9994 0.0928955 17.668V1.16799ZM1.2929 1.76799V17.068H12.5929V5.91652L8.44437 1.76799H1.2929Z" fill="#1F073B"/>
<path id="Vector 507 (Stroke)" fill-rule="evenodd" clip-rule="evenodd" d="M2.5929 6.16799C2.5929 5.83662 2.86152 5.56799 3.1929 5.56799H6.6929C7.02427 5.56799 7.2929 5.83662 7.2929 6.16799C7.2929 6.49936 7.02427 6.76799 6.6929 6.76799H3.1929C2.86152 6.76799 2.5929 6.49936 2.5929 6.16799Z" fill="#1F073B"/>
<path id="Vector 510 (Stroke)" fill-rule="evenodd" clip-rule="evenodd" d="M8.6929 0.567993C9.02427 0.567993 9.2929 0.836622 9.2929 1.16799V5.06799H13.1929C13.5243 5.06799 13.7929 5.33662 13.7929 5.66799C13.7929 5.99936 13.5243 6.26799 13.1929 6.26799H8.6929C8.36152 6.26799 8.0929 5.99936 8.0929 5.66799V1.16799C8.0929 0.836622 8.36152 0.567993 8.6929 0.567993Z" fill="#1F073B"/>
<path id="Vector 508 (Stroke)" fill-rule="evenodd" clip-rule="evenodd" d="M2.5929 9.16799C2.5929 8.83662 2.86152 8.56799 3.1929 8.56799H10.6929C11.0243 8.56799 11.2929 8.83662 11.2929 9.16799C11.2929 9.49936 11.0243 9.76799 10.6929 9.76799H3.1929C2.86152 9.76799 2.5929 9.49936 2.5929 9.16799Z" fill="#1F073B"/>
<path id="Vector 509 (Stroke)" fill-rule="evenodd" clip-rule="evenodd" d="M2.5929 12.168C2.5929 11.8366 2.86152 11.568 3.1929 11.568H10.6929C11.0243 11.568 11.2929 11.8366 11.2929 12.168C11.2929 12.4994 11.0243 12.768 10.6929 12.768H3.1929C2.86152 12.768 2.5929 12.4994 2.5929 12.168Z" fill="#1F073B"/>
</g>
</svg>
