<svg width="129" height="25" viewBox="0 0 129 25" fill="none" xmlns="http://www.w3.org/2000/svg">
<path fill-rule="evenodd" clip-rule="evenodd" d="M33.0289 9.76093H40.4435V20.3584H40.4973C43.4251 20.3584 45.7988 18.0537 45.7988 15.2105V9.76093H53.4194V5.36096H33.0289V9.76093Z" fill="#1F073B"/>
<path fill-rule="evenodd" clip-rule="evenodd" d="M68.5273 15.9606H63.4312C61.6537 15.9606 60.1179 14.6373 60.0348 12.9132C59.9467 11.0798 61.4572 9.56052 63.3268 9.56052H68.4227C70.2002 9.56052 71.7362 10.884 71.819 12.6079C71.9072 14.4418 70.3964 15.9606 68.5273 15.9606ZM69.7867 5.16077H62.0676C57.7628 5.16077 54.2408 8.58067 54.2408 12.7606C54.2408 16.9404 57.7628 20.3606 62.0676 20.3606H69.7867C74.0913 20.3606 77.6134 16.9404 77.6134 12.7606C77.6134 8.58067 74.0913 5.16077 69.7867 5.16077Z" fill="#1F073B"/>
<path fill-rule="evenodd" clip-rule="evenodd" d="M119.022 15.9606H113.926C112.148 15.9606 110.612 14.6373 110.529 12.9132C110.441 11.0798 111.952 9.56052 113.821 9.56052H118.917C120.694 9.56052 122.231 10.884 122.313 12.6079C122.402 14.4418 120.891 15.9606 119.022 15.9606ZM120.281 5.16077H112.562C108.257 5.16077 104.735 8.58067 104.735 12.7606C104.735 16.9404 108.257 20.3606 112.562 20.3606H120.281C124.586 20.3606 128.107 16.9404 128.107 12.7606C128.107 8.58067 124.586 5.16077 120.281 5.16077Z" fill="#1F073B"/>
<path fill-rule="evenodd" clip-rule="evenodd" d="M96.1299 10.7751C96.1299 11.5371 95.4876 12.161 94.7024 12.161H87.4785V9.36121H94.7024C95.4876 9.36121 96.1299 9.98491 96.1299 10.7474V10.7751ZM101.553 11.0027C101.553 9.50587 100.924 8.14582 99.9063 7.15757C98.8907 6.1716 97.4898 5.55994 95.9486 5.55994H81.5061V14.0121V16.5605V20.1599H87.2726V16.5605H93.3691L95.5079 20.1599H101.553L98.9602 15.5864C100.516 14.6161 101.553 12.9212 101.553 11.0027Z" fill="#1F073B"/>
<path fill-rule="evenodd" clip-rule="evenodd" d="M12.4332 24.6826V18.712C12.4332 18.6477 12.3583 18.6112 12.305 18.6496C9.25486 20.8468 5.78347 22.8501 1.96612 24.6122C1.88893 24.6481 1.91513 24.7607 2.00074 24.7607H12.3527C12.3972 24.7607 12.4332 24.7255 12.4332 24.6826Z" fill="#6131B4"/>
<path fill-rule="evenodd" clip-rule="evenodd" d="M24.7896 0.884074C24.8273 0.832288 24.7889 0.760742 24.7239 0.760742H9.00097C4.41267 0.760742 0.692871 4.34282 0.692871 8.76141V16.2515C0.692871 16.3051 0.747137 16.3428 0.799298 16.3255C11.5248 12.818 20.0649 7.34548 24.7896 0.884074Z" fill="#6131B4"/>
<path fill-rule="evenodd" clip-rule="evenodd" d="M16.7583 15.2253V24.6826C16.7583 24.7255 16.7943 24.7605 16.8388 24.7605H17.1012C21.6893 24.7605 25.4088 21.1787 25.4088 16.7601V2.96438C25.4088 2.87648 25.2823 2.85558 25.2526 2.93871C23.6992 7.29825 20.7892 11.4393 16.7829 15.1692C16.7672 15.1838 16.7583 15.204 16.7583 15.2253Z" fill="#6131B4"/>
</svg>
