<svg width="97" height="17" viewBox="0 0 97 17" fill="none" xmlns="http://www.w3.org/2000/svg">
<g id="Group">
<path id="Vector" d="M96.1846 7.73758C96.1846 8.28441 96.1846 8.87029 96.0283 9.29994C95.5987 9.1437 95.169 9.1437 94.6222 9.1437C94.1926 9.1437 93.7629 9.29994 93.3333 9.29994C93.3333 16.3305 93.3333 16.3305 93.3333 16.3305C91.4975 16.3305 91.4975 16.3305 91.4975 16.3305C91.4975 8.16723 91.4975 8.16723 91.4975 8.16723C92.2006 7.89382 93.6067 7.6204 94.5832 7.6204C95.2081 7.6204 95.7549 7.62041 96.1846 7.73758ZM83.9201 11.2919C88.1384 11.2919 88.1384 11.2919 88.1384 11.2919C88.1384 10.0421 87.2791 9.18276 86.0293 9.18276C84.7794 9.18276 84.0763 9.88582 83.9201 11.2919ZM89.857 12.8152C84.0763 12.8152 84.0763 12.8152 84.0763 12.8152C84.2325 14.3776 85.0528 15.0807 86.7714 15.0807C87.7478 15.0807 88.7243 14.8072 89.7399 14.3776C89.5836 14.9244 89.4664 15.5103 89.4664 16.0571C88.6071 16.4868 87.6307 16.604 86.7714 16.604C83.6857 16.604 82.1234 14.9244 82.1234 12.1122C82.1234 9.57335 83.3732 7.6204 86.2245 7.6204C88.9196 7.6204 90.0133 9.29994 90.0133 11.4091C89.9742 11.995 89.857 12.3856 89.857 12.8152ZM78.8424 14.5338C78.8424 9.339 78.8424 9.339 78.8424 9.339C78.4128 9.339 77.8659 9.18276 77.4363 9.18276C75.6005 9.18276 74.7412 10.3155 74.7412 12.2684C74.7412 13.9479 75.4443 15.0807 77.0066 15.0807C77.7097 15.0807 78.2956 14.8072 78.8424 14.5338ZM80.6782 4.80816C80.6782 16.3696 80.6782 16.3696 80.6782 16.3696C78.9986 16.3696 78.9986 16.3696 78.9986 16.3696C78.8424 15.3931 78.8424 15.3931 78.8424 15.3931C78.4128 16.0962 77.7097 16.643 76.4598 16.643C74.3506 16.643 72.9445 14.9635 72.9445 12.2684C72.9445 9.29994 74.5069 7.6204 77.4363 7.6204C77.9831 7.6204 78.4128 7.77664 78.8424 7.77664C78.8424 5.08158 78.8424 5.08157 78.8424 5.08157C79.4283 4.80816 80.1314 4.80816 80.6782 4.80816ZM71.3822 10.8623C71.3822 16.3696 71.3822 16.3696 71.3822 16.3696C69.5464 16.3696 69.5464 16.3696 69.5464 16.3696C69.5464 11.1748 69.5464 11.1748 69.5464 11.1748C69.5464 9.92488 69.1167 9.22182 67.281 9.22182C66.8513 9.22182 66.4217 9.37806 65.8749 9.37806C65.8749 16.4087 65.8749 16.4087 65.8749 16.4087C64.0391 16.4087 64.0391 16.4087 64.0391 16.4087C64.0391 8.24535 64.0391 8.24535 64.0391 8.24535C65.1718 7.97193 66.4217 7.69852 67.4372 7.69852C70.4057 7.62041 71.3822 8.87029 71.3822 10.8623ZM60.2504 14.5338C60.2504 9.339 60.2504 9.339 60.2504 9.339C59.8207 9.339 59.3911 9.18276 59.0005 9.18276C57.0085 9.18276 56.1882 10.4326 56.1882 12.2684C56.1882 13.9479 56.8913 15.0807 58.4537 15.0807C59.1177 15.0807 59.8207 14.9244 60.2504 14.5338ZM62.0861 8.16723C62.0861 16.3305 62.0861 16.3305 62.0861 16.3305C60.4066 16.3305 60.4066 16.3305 60.4066 16.3305C60.2504 15.3541 60.2504 15.3541 60.2504 15.3541C59.8207 16.0571 59.1177 16.604 57.9849 16.604C55.7195 16.604 54.3134 14.9244 54.3134 12.2294C54.3134 9.26088 55.8758 7.58135 58.9614 7.58135C60.1332 7.6204 61.1097 7.73758 62.0861 8.16723ZM52.2433 15.0807C52.7901 15.0807 53.376 14.9244 53.8056 14.8072C53.6494 15.2369 53.6494 15.7837 53.5322 16.3696C53.1026 16.5258 52.5558 16.643 51.9699 16.643C50.2903 16.643 49.1576 15.7837 49.1576 13.8308C49.1576 5.08158 49.1576 5.08157 49.1576 5.08157C49.7045 4.92534 50.2903 4.80816 50.8372 4.80816C50.8372 7.89382 50.8372 7.89382 50.8372 7.89382C53.8056 7.89382 53.8056 7.89382 53.8056 7.89382C53.8056 8.44064 53.6494 9.02653 53.6494 9.45617C50.8372 9.45617 50.8372 9.45617 50.8372 9.45617C50.8372 13.5574 50.8372 13.5574 50.8372 13.5574C50.8372 14.651 51.384 15.0807 52.2433 15.0807ZM47.2828 10.8623C47.2828 16.3696 47.2828 16.3696 47.2828 16.3696C45.447 16.3696 45.447 16.3696 45.447 16.3696C45.447 11.1748 45.447 11.1748 45.447 11.1748C45.447 9.92488 45.0174 9.22182 43.1816 9.22182C42.752 9.22182 42.2051 9.37806 41.6193 9.37806C41.6193 16.4087 41.6193 16.4087 41.6193 16.4087C39.7835 16.4087 39.7835 16.4087 39.7835 16.4087C39.7835 8.24535 39.7835 8.24535 39.7835 8.24535C41.0334 7.97193 42.3223 7.69852 43.1816 7.69852C46.3063 7.62041 47.2828 8.87029 47.2828 10.8623ZM36.0338 14.5338C36.0338 9.339 36.0338 9.339 36.0338 9.339C35.7604 9.339 35.3308 9.18276 34.784 9.18276C32.9482 9.18276 31.9717 10.4326 31.9717 12.2684C31.9717 13.9479 32.6748 15.0807 34.3543 15.0807C35.0574 15.0807 35.6042 14.9244 36.0338 14.5338ZM37.8696 8.16723C37.8696 16.3305 37.8696 16.3305 37.8696 16.3305C36.1901 16.3305 36.1901 16.3305 36.1901 16.3305C36.1901 15.3541 36.1901 15.3541 36.1901 15.3541C35.6432 16.0571 34.9402 16.604 33.8075 16.604C31.6983 16.604 30.1359 14.9244 30.1359 12.2294C30.1359 9.26088 31.6983 7.58135 34.784 7.58135C36.0338 7.6204 37.0103 7.73758 37.8696 8.16723ZM21.3867 16.0571C21.3867 15.3541 21.543 14.9244 21.6602 14.3776C22.6366 14.8072 23.7693 14.9244 24.7458 14.9244C26.3082 14.9244 27.1284 14.4948 27.1284 13.5183C27.1284 12.5418 26.4253 12.1122 24.863 11.4091C24.0428 11.1357 24.0428 11.1357 24.0428 11.1357C22.4804 10.4326 21.5039 9.57335 21.5039 7.73758C21.5039 5.90181 22.7538 4.65193 25.4489 4.65193C26.5816 4.65193 27.5581 4.80816 28.4174 5.08157C28.4174 5.78464 28.2611 6.33146 28.1439 6.76111C27.2846 6.4877 26.191 6.33146 25.4489 6.33146C24.0428 6.33146 23.3397 6.87829 23.3397 7.73758C23.3397 8.59688 23.8865 9.1437 25.1755 9.57335C26.0348 10.003 26.0348 10.003 26.0348 10.003C28.1439 10.8623 29.0032 11.8388 29.0032 13.4011C29.0032 15.3541 27.5971 16.643 24.7849 16.643C23.3397 16.643 22.207 16.4868 21.3867 16.0571ZM13.0672 7.89382C12.911 7.19076 12.7938 6.64393 12.5204 6.05805C9.70813 1.2538 9.70813 1.2538 9.70813 1.2538C9.5519 0.980389 9.43472 0.550742 9.27848 0.121094C9.27848 0.394506 9.27848 0.394505 9.27848 0.394505C8.57542 1.52721 8.57542 2.93333 9.27848 4.18322C11.3877 7.97193 11.3877 7.97193 11.3877 7.97193C12.0907 9.10464 12.0907 10.667 11.3877 11.7606C11.2314 12.0341 11.2314 12.0341 11.2314 12.0341C11.2314 11.6044 11.0752 11.1748 10.8018 10.7842C8.84883 7.26887 8.84883 7.26887 8.84883 7.26887C7.59895 5.15969 7.59895 5.15969 7.59895 5.15969C7.32554 4.73005 7.1693 4.3004 7.1693 3.90981C7.01307 4.18322 7.01307 4.18322 7.01307 4.18322C6.31001 5.31593 6.31001 6.72205 7.01307 7.97193C9.27848 11.7606 9.27848 11.7606 9.27848 11.7606C9.82531 13.0105 9.82531 14.4557 9.27848 15.5494C9.12225 15.8228 9.12225 15.8228 9.12225 15.8228C8.96601 15.3931 8.84883 14.9635 8.6926 14.6901C5.88036 9.88582 5.88036 9.88582 5.88036 9.88582C5.45071 9.18276 5.33353 8.4797 5.33353 7.77664C2.36505 8.4797 0.412109 10.1592 0.412109 11.995C0.412109 14.6901 4.35706 16.7992 9.27848 16.7992C14.0827 16.7992 18.0277 14.6901 18.0277 11.995C17.9886 10.2764 16.0357 8.59688 13.0672 7.89382Z" fill="#F02733"/>
</g>
</svg>
